<svg width="161" height="314" viewBox="0 0 161 314" fill="none" xmlns="http://www.w3.org/2000/svg">
<path d="M92.5349 170.149C93.3914 168.659 98.3163 166.317 97.6739 165.04C96.9098 163.9 88.655 144.494 88.655 144.494C88.3879 144.222 88.1769 144.17 88.0382 144.39C92.5349 165.04 77.8784 190.724 70.694 203.146C74.12 201.869 90.8219 173.342 92.5349 170.149Z" fill="#BC2D00"/>
<path d="M64.4844 100.536C71.308 110.906 81.4988 125.189 88.0382 144.39C88.1769 144.17 88.3879 144.222 88.655 144.494C88.655 144.494 96.9098 163.9 97.6739 165.04C98.3163 166.317 93.3914 168.659 92.5349 170.149C90.8219 173.342 74.12 201.869 70.694 203.146C65.7691 211.662 60.2019 219.751 54.6346 228.054C40.9306 247.426 25.9418 265.734 10.0965 283.404C5.59985 288.513 1.74559 294.261 0.460838 301.073C-0.181539 305.118 0.246699 308.737 3.45858 311.505C6.67047 314.272 10.3106 314.059 14.1649 313.421C19.7321 312.356 24.2288 309.589 28.7254 306.395C62.5572 281.914 94.462 255.09 122.298 223.796C134.503 210.171 145.852 195.482 153.989 178.877C156.987 172.278 159.77 165.466 160.413 158.015C161.269 149.499 157.415 142.474 153.989 135.449C146.28 119.27 135.574 105.432 123.797 92.0204C105.811 71.3705 85.897 52.8496 64.6985 35.393C51.851 24.7488 38.7893 14.3174 24.8712 4.95047C20.1604 1.75719 14.8072 -0.371653 8.81173 0.0541167C3.67271 0.479886 0.246686 3.88604 0.0325605 8.99528C-0.181565 12.4014 0.674937 15.5947 2.17382 18.5751C5.17158 25.1745 9.88232 30.4966 14.5931 35.8188C32.7938 56.2557 49.4956 77.7571 64.4844 100.536Z" fill="#BC2D00"/>
</svg>
