<svg width="487" height="64" viewBox="0 0 487 64" fill="none" xmlns="http://www.w3.org/2000/svg">
<path d="M451.979 63.5251C447.646 63.5251 443.314 63.2718 439.109 61.7515C431.081 58.8377 426.111 53.2634 423.818 45.1554C423.69 44.6487 423.563 44.0152 423.308 43.5085C422.671 45.1554 422.543 46.929 422.289 48.576C421.652 52.63 421.142 56.684 420.632 60.6113C420.505 61.6248 420.122 61.8782 419.23 61.8782C414.898 61.8782 410.438 61.7515 406.105 61.8782C404.959 61.8782 404.576 61.2447 404.194 60.4846C397.058 49.4628 389.795 38.4409 382.659 27.4191C382.404 27.039 382.022 26.5323 381.512 25.7722C380.875 30.0795 380.365 34.0069 379.856 38.0609C378.836 45.5355 377.689 53.1367 376.797 60.6113C376.67 61.6248 376.288 61.7515 375.396 61.7515C367.368 61.7515 359.34 61.7515 351.312 61.7515C350.293 61.7515 349.911 61.3714 349.783 60.3579C349.273 57.8242 348.764 55.1637 348.254 52.63C348.127 51.7432 347.744 51.4898 346.725 51.4898C340.226 51.4898 333.727 51.4898 327.101 51.4898C326.209 51.4898 325.7 51.7432 325.317 52.63C324.17 55.2904 322.769 57.8242 321.622 60.4846C321.24 61.3714 320.73 61.7515 319.711 61.7515C312.32 61.7515 305.056 61.7515 297.666 61.7515C296.646 61.7515 296.137 61.3714 295.754 60.4846C292.186 53.5168 288.618 46.549 284.923 39.0744C284.541 41.6081 284.159 43.7618 283.904 45.7888C283.267 50.7297 282.502 55.6705 281.865 60.6113C281.737 61.7515 281.1 61.6248 280.336 61.6248C271.543 61.6248 262.878 61.6248 254.086 61.6248C243.51 61.6248 232.806 61.6248 222.229 61.6248C220.828 61.6248 220.445 61.2447 220.445 59.8512C220.445 49.3361 220.445 38.821 220.445 28.4326C220.191 28.4326 220.063 28.3059 219.808 28.3059C218.662 30.4596 217.387 32.6133 216.24 34.767C211.526 43.3818 206.683 51.9965 201.969 60.6113C201.586 61.3714 201.077 61.6248 200.185 61.6248C198.528 61.4981 196.617 62.1316 195.47 61.3714C194.323 60.6113 194.451 58.4576 194.068 56.9374C191.647 47.6891 189.354 38.3143 187.06 29.066C186.932 28.8127 186.805 28.4326 186.678 27.9259C184.766 34.6403 182.855 40.9747 181.071 47.3091C179.797 51.7432 178.522 56.1772 177.248 60.6113C176.993 61.4981 176.611 61.6248 175.846 61.6248C171.514 61.6248 167.054 61.6248 162.721 61.6248C161.575 61.6248 161.702 61.2448 161.957 60.3579C163.486 55.4171 165.015 50.3496 166.544 45.4088C166.544 45.2821 166.544 45.0287 166.417 44.522C164.888 47.0557 163.359 49.3361 161.447 51.2364C153.547 59.4711 143.99 63.2718 132.649 63.1451C125.768 63.0184 119.397 61.2447 114.045 56.9374C110.477 54.0235 107.928 50.4763 106.399 46.1689C106.144 45.6621 106.017 45.0287 105.762 44.2686C104.87 45.6621 103.978 46.929 103.213 48.0692C93.7838 61.1181 75.5619 66.5656 60.5256 61.1181C55.1737 59.2177 50.9686 55.7972 47.9104 50.983C47.6556 50.603 47.5281 50.3496 47.2733 50.0962C47.2733 49.9695 47.1459 49.9695 46.891 49.9695C46.1264 51.4898 45.2345 53.01 44.2151 54.2769C39.8826 59.3444 34.1484 61.3714 27.7771 61.4981C19.1121 61.7515 10.5745 61.6248 1.90955 61.6248C0.890141 61.6248 0.762716 61.2448 0.890142 60.3579C2.92896 46.0422 4.84036 31.8532 6.87917 17.5375C7.51631 13.1034 8.15343 8.6693 8.66314 4.10854C8.79056 2.84166 9.17284 2.4616 10.5745 2.4616C18.8572 2.71498 27.1399 2.08153 35.2952 2.84166C40.01 3.22172 44.0876 5.12205 45.999 9.93618C47.9104 15.1304 46.7636 24.7587 40.01 29.1927C39.6277 29.4461 39.2454 29.6995 38.4809 30.2062C40.5197 30.713 42.3037 31.3464 44.0876 32.3599C44.7248 29.3194 45.3619 26.2789 46.6362 23.4918C51.7332 12.2166 60.2708 4.99535 72.3762 2.08153C80.2767 0.181215 88.1771 0.561278 95.5678 3.98185C102.067 7.02236 106.526 11.9632 108.82 18.8043C108.948 19.0577 109.075 19.4378 109.202 19.8178C110.222 18.2976 111.241 16.904 112.261 15.6371C121.563 3.09504 139.275 -2.22586 153.929 2.84166C165.143 6.76898 171.641 16.3973 171.386 28.8127C171.386 29.1927 171.386 29.5728 171.641 30.0795C172.278 27.9258 173.043 25.8988 173.68 23.7452C175.719 17.1574 177.758 10.5696 179.797 3.98185C180.051 2.96835 180.561 2.4616 181.708 2.4616C185.913 2.58829 189.991 2.58829 194.196 2.4616C195.215 2.4616 195.597 2.71497 195.852 3.85516C198.018 13.2301 200.312 22.7317 202.606 32.1066C202.733 32.6133 202.861 32.9934 203.116 33.7535C204.645 30.8397 205.919 28.3059 207.321 25.7722C211.143 18.4243 214.839 11.0764 218.534 3.72848C219.044 2.84166 219.554 2.4616 220.7 2.4616C224.905 2.58829 228.983 2.58829 233.188 2.4616C234.335 2.4616 234.59 2.71497 234.717 3.85516C235.1 17.9175 235.609 31.9799 236.119 46.4223C236.883 44.1419 236.883 42.2416 237.138 40.3413C238.795 28.3059 240.451 16.2706 242.108 4.23523C242.235 2.96835 242.618 2.58829 244.019 2.58829C262.241 2.58829 280.463 2.58829 298.685 2.58829C301.361 2.58829 303.91 2.84166 306.458 3.72848C313.084 5.88217 316.907 11.7098 316.397 18.6776C316.143 22.8583 315.123 26.9123 312.575 30.4596C310.026 33.8802 306.586 36.0339 302.635 37.1741C301.234 37.5541 301.234 37.9342 301.871 39.0744C304.292 42.7483 306.586 46.549 308.879 50.2229C309.262 50.8564 309.644 51.3631 310.154 52.1232C311.683 49.0827 313.212 46.4223 314.613 43.6351C321.494 30.3329 328.375 17.1574 335.257 3.85516C335.639 3.09504 336.148 2.84166 337.04 2.84166C341.883 2.84166 346.597 2.84166 351.44 2.84166C352.459 2.84166 352.841 3.09503 353.096 4.10854C356.154 16.7773 359.213 29.3194 362.398 41.9882C362.781 43.6352 363.163 45.1554 363.927 46.929C364.055 45.6621 364.31 44.3953 364.437 43.1284C366.221 30.2062 368.005 17.2841 369.789 4.23523C369.916 3.09504 370.299 2.71497 371.446 2.71497C375.651 2.84166 379.728 2.84166 383.933 2.71497C385.08 2.71497 385.717 3.09503 386.354 4.10854C393.49 15.1304 400.754 26.2789 407.889 37.3007C408.144 37.6808 408.272 38.1876 408.909 38.3143C409.673 32.74 410.438 27.039 411.203 21.4648C411.967 15.7638 412.859 10.0629 413.496 4.23523C413.624 3.09504 414.006 2.71497 415.28 2.71497C419.485 2.84166 423.69 2.71497 427.895 2.71497C428.915 2.71497 429.17 2.96835 429.042 3.98185C428.278 9.30274 427.513 14.7503 426.749 20.0712C426.749 20.4513 426.621 20.958 426.621 21.8448C427.513 20.3246 428.023 19.1844 428.66 18.0442C433.12 10.6963 439.364 5.75548 447.519 3.09504C448.029 2.96835 448.411 2.71497 448.793 2.58829C453.381 1.57478 457.968 0.941344 462.683 1.32141C472.622 2.20822 480.268 6.5156 484.218 16.1439C484.6 17.1574 484.473 17.5374 483.453 18.0442C479.248 19.5645 475.043 21.2114 470.838 22.985C469.309 23.6185 468.927 23.2384 468.544 21.8448C466.76 16.6506 461.536 13.6101 456.184 14.6236C451.724 14.877 448.156 16.7773 445.353 20.0712C440.638 25.6455 438.981 32.2332 439.873 39.3278C440.256 42.495 441.657 45.4088 444.333 47.4358C448.411 50.603 456.439 50.8563 460.771 48.0692C462.938 47.1824 464.339 45.5355 465.359 43.6351C465.868 42.7483 466.76 41.6081 466.378 40.848C465.868 40.0879 464.594 40.5946 463.575 40.5946C460.771 40.5946 458.095 40.4679 455.292 40.4679C454.4 40.4679 454.145 40.2146 454.273 39.3278C454.782 36.0339 455.165 32.74 455.547 29.4461C455.674 28.5593 456.057 28.5593 456.694 28.5593C458.733 28.5593 460.644 28.5593 462.683 28.4326C463.192 28.4326 463.702 28.5593 464.339 28.5593C471.093 28.5593 477.974 28.5593 484.727 28.5593C486.129 28.5593 486.511 28.9394 486.129 30.3329C485.747 31.7265 485.619 33.1201 485.365 34.6403C483.453 44.522 478.611 52.5033 469.946 57.9509C464.212 61.4981 458.223 63.1451 451.979 63.5251ZM135.452 48.576C143.735 48.576 151.635 42.7483 153.929 34.8937C156.86 24.8853 150.234 15.8905 139.657 16.1439C132.267 16.2706 126.66 20.0712 123.092 26.4056C116.975 36.794 123.602 48.576 135.452 48.576ZM74.4151 48.576C83.3349 48.576 91.6176 41.8615 93.2741 33.1201C94.8033 25.012 89.8336 17.6641 81.8058 16.3973C72.2488 14.877 62.5644 21.4648 60.2708 30.9664C57.9771 40.468 64.4758 48.576 74.4151 48.576ZM259.31 48.8293C261.859 48.8293 264.408 48.8293 266.829 48.8293C267.593 48.8293 267.975 48.576 268.103 47.8158C268.485 45.1554 268.867 42.3683 269.25 39.7078C269.377 38.821 269.122 38.5676 268.23 38.5676C263.261 38.5676 258.291 38.5676 253.194 38.5676C252.302 38.5676 252.175 38.821 252.047 39.7078C251.792 42.3683 251.41 45.1554 250.9 47.8158C250.773 48.8293 251.155 48.8293 251.92 48.8293C254.341 48.8293 256.889 48.8293 259.31 48.8293ZM262.496 25.7722C265.045 25.7722 267.593 25.7722 270.142 25.7722C270.906 25.7722 271.289 25.6455 271.416 24.7587C271.671 22.0982 272.181 19.4378 272.563 16.7773C272.69 15.8905 272.308 15.7638 271.543 15.7638C266.574 15.7638 261.477 15.7638 256.507 15.7638C255.743 15.7638 255.36 16.0172 255.36 16.7773C255.105 19.4378 254.596 22.0982 254.213 24.7587C254.086 25.6455 254.468 25.7722 255.105 25.6455C257.527 25.6455 260.075 25.7722 262.496 25.7722ZM21.4058 49.9695C22.68 49.8428 23.9543 49.8428 25.2285 49.7162C26.5028 49.5895 27.7771 49.2094 28.9239 48.7026C31.345 47.5625 32.8741 44.902 32.6193 42.2416C32.3644 39.8345 30.9627 38.5676 27.9045 37.9342C25.356 37.4274 22.9349 37.4274 20.3864 37.4274C19.4944 37.4274 19.2395 37.6808 19.1121 38.5676C18.7298 41.9882 18.2201 45.4088 17.583 48.8293C17.4555 49.7162 17.7104 50.0962 18.7298 49.9695C19.6218 49.9695 20.5138 49.9695 21.4058 49.9695ZM291.422 14.7503C290.402 14.7503 289.765 14.7503 289.128 14.7503C288.364 14.7503 288.109 15.0037 287.981 15.7638C287.472 19.5645 286.962 23.3651 286.452 27.1657C286.197 29.3194 286.197 29.3194 288.364 29.1927C289.128 29.1927 289.893 29.1927 290.657 29.1927C293.206 28.9394 295.5 28.4326 297.411 26.5323C299.45 24.3786 300.087 21.8448 299.322 18.931C298.558 16.2706 296.392 15.3838 293.97 15.0037C292.951 14.7503 292.059 14.7503 291.422 14.7503ZM331.689 39.9612C336.021 39.9612 340.099 39.9612 344.176 39.9612C345.323 39.9612 345.451 39.5811 345.323 38.5676C344.686 35.6538 344.049 32.74 343.412 29.8262C342.775 26.9123 342.138 23.8718 341.373 20.4513C337.932 27.1657 334.874 33.3734 331.689 39.9612ZM23.3172 26.0255C25.8657 26.0255 27.6496 25.6455 29.0513 24.7587C31.0902 23.4918 32.1096 20.578 31.5999 18.1709C31.0902 16.1439 29.6885 15.1304 26.8851 14.7503C25.8657 14.6236 24.7188 14.7503 23.6994 14.6236C22.68 14.4969 22.4252 15.0037 22.2977 15.8905C21.9155 18.551 21.5332 21.2114 21.2783 23.8718C20.8961 26.0255 20.8961 26.0255 23.3172 26.0255Z" fill="white"/>
</svg>
